:SAMPLES-PER-SECOND 30
:FULLY-SPECIFIED
:DEGREES
515
root  -79.6376 33.9322 12.4658 1.73128 25.4764 -0.649684
RightUpLeg  -25.6185 -8.18597 -6.48912
RightLeg  18.3024 -6.02969 -1.569
RightFoot  -3.07665 -0.00137924 0.326265
RightToes  -28.4714 -0.133538 -0.241203
Spine  4.56067 -4.2893 -0.297179
Spine1  8.67537 -8.42784 -1.74725
HEad  37.4753 4.69276 6.45053
LeftShoulder1  0 -2.42657e-020 -4.95415e-022
LeftArm  1.11245 18.9298 -76.4371
LeftForeArm  51.0798 -73.3467 -36.4237
LeftHand  -0.524664 -7.54904 7.57697
RightShoulder  0 2.42657e-020 1.07489e-018
RightArm  -35.4936 -15.9375 80.5901
RightForeArm  35.6565 76.0609 45.7034
RightHand  1.51163 20.5067 8.71505
LeftUpLeg  2.6852 -9.657 -0.249904
LeftLeg  26.6963 -6.00349 -2.54702
LeftFoot  -4.61111 0.0191154 0.474772
LeftToes  -20.3837 8.72033e-007 1.17809e-007
516
root  -79.7018 33.8812 14.332 2.68722 27.4166 -0.911185
RightUpLeg  -25.604 -7.6701 -7.16376
RightLeg  12.2628 -4.56017 -0.685518
RightFoot  -2.76083 -0.00396051 0.213249
RightToes  -30.3279 -0.146186 -0.254239
Spine  4.27717 -4.27914 -0.0124976
Spine1  8.0902 -8.4252 -1.22253
HEad  34.7187 7.41762 6.02173
LeftShoulder1  0 -2.42657e-020 -4.95415e-022
LeftArm  3.72836 18.8672 -76.0659
LeftForeArm  56.3047 -75.7288 -44.3338
LeftHand  -0.4206 -6.06815 7.56127
RightShoulder  0 2.42657e-020 1.07489e-018
RightArm  -35.9196 -14.6803 79.2764
RightForeArm  47.2372 78.0481 57.1418
RightHand  1.83952 20.9896 10.2794
LeftUpLeg  2.35731 -10.4133 1.36717
LeftLeg  29.3272 -5.93285 -2.84451
LeftFoot  -2.17386 0.00366211 0.193009
LeftToes  -28.2456 8.72033e-007 1.17809e-007
517
root  -79.8553 33.4605 16.1766 2.44262 26.9004 -0.807831
RightUpLeg  -27.0761 -5.79709 -6.96044
RightLeg  14.6452 -2.56256 -0.495294
RightFoot  -2.70508 -0.00618928 0.115439
RightToes  -34.303 -0.174647 -0.280733
Spine  4.45209 -3.42149 0.0629872
Spine1  8.32697 -6.67444 -1.13837
HEad  31.82 11.5784 5.55491
LeftShoulder1  0 -2.42657e-020 -4.95415e-022
LeftArm  5.10036 18.3246 -75.9358
LeftForeArm  63.0849 -77.6963 -54.6538
LeftHand  -0.38464 -5.59023 7.50529
RightShoulder  0 2.42657e-020 1.07489e-018
RightArm  -33.0055 -12.1189 77.0333
RightForeArm  58.2352 79.4093 72.0699
RightHand  1.98778 20.2356 11.4791
LeftUpLeg  1.68948 -9.09896 2.42704
LeftLeg  35.8647 -5.07721 -3.1923
LeftFoot  -0.23994 -6.60953e-005 -0.0315747
LeftToes  -37.3835 8.72033e-007 1.17809e-007
518
root  -80.0689 32.7991 18.2525 0.798516 26.9544 -2.33053
RightUpLeg  -27.4422 -5.63283 -4.44401
RightLeg  20.3756 -0.880378 -0.265467
RightFoot  -2.99668 -0.00873727 0.0435274
RightToes  -31.9337 -0.157461 -0.265178
Spine  4.97397 -2.67389 0.466131
Spine1  9.24127 -5.0846 -0.592704
HEad  28.476 17.7499 4.88767
LeftShoulder1  0 -2.42657e-020 -4.95415e-022
LeftArm  5.75228 18.54 -75.9089
LeftForeArm  85.5526 -79.6662 -77.6958
LeftHand  -0.425435 -5.20041 8.98931
RightShoulder  0 2.42657e-020 1.07489e-018
RightArm  -28.9564 -8.78207 75.288
RightForeArm  66.6597 79.8387 83.1229
RightHand  2.15866 19.9151 12.6242
LeftUpLeg  0.0334007 -8.52207 5.07916
LeftLeg  45.7959 -3.67543 -3.32312
LeftFoot  2.51928 0.00577546 -0.262668
LeftToes  -45.532 8.72033e-007 1.17809e-007
519
root  -80.1755 32.0124 20.4255 -2.16967 30.213 -6.25807
RightUpLeg  -27.1381 -8.88659 -0.526143
RightLeg  27.0204 -0.262517 -0.119258
RightFoot  3.94152 0.0137506 -0.0220566
RightToes  -29.4642 -0.140249 -0.248225
Spine  5.60987 -2.8683 1.68755
Spine1  10.3869 -5.4052 1.26471
HEad  24.4527 24.3269 4.42889
LeftShoulder1  0 -2.42657e-020 -4.95415e-022
LeftArm  7.17713 19.1622 -76.4619
LeftForeArm  119.678 -79.0564 -112.597
LeftHand  -0.538223 -4.2815 13.976
RightShoulder  0 2.42657e-020 1.07489e-018
RightArm  -23.2178 -5.68916 72.6981
RightForeArm  78.8399 79.8686 94.7596
RightHand  1.59677 20.0538 9.38582
LeftUpLeg  -4.46467 -11.3109 9.57383
LeftLeg  59.2731 -1.73651 -2.54349
LeftFoot  6.65997 0.0222491 -0.382395
LeftToes  -42.6436 8.72033e-007 1.17809e-007
520
root  -80.2051 31.2379 22.3288 -5.16658 31.225 -8.7567
RightUpLeg  -29.7162 -13.0053 2.71369
RightLeg  39.3467 2.65486 1.88248
RightFoot  3.14769 0.00457944 0.21083
RightToes  -37.9178 -0.202067 -0.303061
Spine  6.80005 -2.04211 2.66783
Spine1  12.5873 -3.74565 2.82281
HEad  18.8581 29.0592 1.7536
LeftShoulder1  0 -2.42657e-020 -4.95415e-022
LeftArm  7.92774 17.6398 -78.3465
LeftForeArm  138.918 -76.3495 -132.577
LeftHand  -0.505244 -3.66861 15.3366
RightShoulder  0 2.42657e-020 1.07489e-018
RightArm  -17.2501 -1.74154 69.604
RightForeArm  92.4985 79.3428 108.72
RightHand  1.19735 19.1258 7.47081
LeftUpLeg  -9.31946 -12.7713 11.2596
LeftLeg  72.8311 0.539151 1.39702
LeftFoot  11.9466 -0.0336014 0.321124
LeftToes  -24.8293 8.72033e-007 1.17809e-007
521
root  -80.2169 30.7127 23.8151 -6.53097 30.9591 -8.89643
RightUpLeg  -29.9022 -13.4937 3.47262
RightLeg  46.2821 2.51022 2.27045
RightFoot  -2.99504 -0.0124276 -0.0978479
RightToes  -30.0414 -0.144206 -0.252254
Spine  7.96212 -0.428256 2.89763
Spine1  14.7304 -0.500947 3.25812
HEad  13.7719 31.3712 -0.836213
LeftShoulder1  0 -2.42657e-020 -4.95415e-022
LeftArm  9.6924 14.6188 -79.8682
LeftForeArm  148.409 -74.2672 -140.539
LeftHand  -0.558553 -4.36891 14.2167
RightShoulder  0 2.42657e-020 1.07489e-018
RightArm  -10.4872 2.28267 66.513
RightForeArm  106.593 78.6307 117.433
RightHand  0.49553 20.4939 3.1116
LeftUpLeg  -14.7645 -12.0249 10.42
LeftLeg  82.9669 0.537315 2.80084
LeftFoot  7.08479 -0.023836 0.38503
LeftToes  -23.7672 8.72033e-007 1.17809e-007
522
root  -80.0901 30.602 25.242 -7.1454 32.0721 -9.15578
RightUpLeg  -28.0383 -13.1555 4.02436
RightLeg  48.516 1.14527 1.09645
RightFoot  -6.78111 -0.0276039 -0.0883808
RightToes  -30.5279 -0.147573 -0.255618
Spine  8.47529 0.833216 2.97099
Spine1  15.7045 1.9445 3.75044
HEad  10.8475 32.1891 -2.97505
LeftShoulder1  0 -2.42657e-020 -4.95415e-022
LeftArm  14.1053 12.0328 -80.2264
LeftForeArm  151.731 -72.1941 -146.081
LeftHand  -0.276989 -1.8386 16.826
RightShoulder  0 2.42657e-020 1.07489e-018
RightArm  -4.00659 4.66542 65.0317
RightForeArm  121.236 77.9362 123.264
RightHand  -0.560676 20.906 -2.66915
LeftUpLeg  -20.7949 -11.4191 9.16035
LeftLeg  88.2978 0.271764 2.80821
LeftFoot  0.574536 -0.000365745 0.0729389
LeftToes  -13.4359 8.72033e-007 1.17809e-007
523
root  -79.8294 30.9051 26.5099 -7.30413 34.17 -9.25549
RightUpLeg  -25.0144 -14.0674 4.09884
RightLeg  47.5206 0.323563 0.271462
RightFoot  -9.07924 -0.0258639 0.051802
RightToes  -27.8504 -0.129402 -0.236752
Spine  8.61395 1.73022 3.03216
Spine1  15.9437 3.57784 4.42734
HEad  9.80975 31.7591 -3.97672
LeftShoulder1  0 -2.42657e-020 -4.95415e-022
LeftArm  12.8578 11.699 -81.5401
LeftForeArm  144.485 -72.0997 -146.308
LeftHand  0.548294 2.81712 21.6013
RightShoulder  0 2.42657e-020 1.07489e-018
RightArm  1.82977 6.30359 64.2358
RightForeArm  126.054 77.9152 123.396
RightHand  -2.11014 19.6395 -11.7808
LeftUpLeg  -26.2612 -11.1813 6.83124
LeftLeg  88.2864 0.474809 4.94183
LeftFoot  -1.31821 -0.000421328 -0.0366332
LeftToes  -13.5315 8.72033e-007 1.17809e-007
524
root  -79.4856 31.499 27.6769 -6.91484 37.2711 -8.89333
RightUpLeg  -20.7894 -15.4504 3.63225
RightLeg  43.6597 -1.32066 -1.13668
RightFoot  -9.67497 0.00496845 0.436287
RightToes  -24.7729 -0.109632 -0.214046
Spine  8.54214 2.34197 2.84183
Spine1  15.8867 4.73872 4.54134
HEad  8.80143 30.686 -4.72334
LeftShoulder1  0 -2.42657e-020 -4.95415e-022
LeftArm  9.14121 12.0298 -81.742
LeftForeArm  141.191 -74.0219 -141.303
LeftHand  0.243262 1.5427 17.4734
RightShoulder  0 2.42657e-020 1.07489e-018
RightArm  6.04069 7.44345 64.024
RightForeArm  130.122 78.4504 119.011
RightHand  -3.44039 18.0666 -21.0319
LeftUpLeg  -30.6724 -10.9494 3.9932
LeftLeg  83.4902 0.979413 5.39318
LeftFoot  -3.80436 -0.00756102 -0.227671
LeftToes  -7.13376 8.72033e-007 1.17809e-007
525
root  -79.1011 32.2131 28.7899 -6.04137 40.6487 -8.29024
RightUpLeg  -15.9929 -16.6888 3.14463
RightLeg  37.8985 -2.14561 -1.47708
RightFoot  -8.95824 0.013651 0.551857
RightToes  -28.1251 -0.131226 -0.238726
Spine  8.33279 2.91748 2.61521
Spine1  15.5398 5.82901 4.62016
HEad  6.87868 28.9729 -5.31289
LeftShoulder1  0 -2.42657e-020 -4.95415e-022
LeftArm  8.9403 10.7665 -79.9623
LeftForeArm  137.743 -75.3384 -136.86
LeftHand  0.13783 0.923511 16.4843
RightShoulder  0 2.42657e-020 1.07489e-018
RightArm  9.06752 7.88344 63.2949
RightForeArm  134.305 78.991 113.376
RightHand  -4.73126 17.4162 -29.8293
LeftUpLeg  -33.2302 -10.4408 1.16327
LeftLeg  74.5551 1.60482 4.59696
LeftFoot  -3.94953 -0.00571393 -0.165727
LeftToes  -7.78144 8.72033e-007 1.17809e-007
